<svg xmlns="http://www.w3.org/2000/svg" viewBox="0 0 734.84 127.61"><defs><style>.b2dad2fd-2deb-4ce1-8886-2a4e968da840{fill:#6db33f;}.e115df09-fdef-4fbc-a38d-f5df2e5b86d6{fill:#fff;}</style></defs><g id="bca6d94f-a23e-485d-9393-a974ed163527" data-name="Layer 2"><g id="aa513530-9808-4a11-925d-fc247329a8a4" data-name="Layer 1"><path class="b2dad2fd-2deb-4ce1-8886-2a4e968da840" d="M140.26,56.16l-28-48.47C109.87,3.52,103.84,0,99,0h-56C38.23,0,32.2,3.43,29.8,7.69l-28,48.47C-.6,60.33-.6,67.28,1.81,71.45l28,48.47c2.4,4.17,8.43,7.69,13.25,7.69H99c4.82,0,10.85-3.43,13.26-7.69l28-48.47C142.77,67.19,142.77,60.33,140.26,56.16Z"/><circle class="e115df09-fdef-4fbc-a38d-f5df2e5b86d6" cx="32.11" cy="104.91" r="5.65"/><path class="e115df09-fdef-4fbc-a38d-f5df2e5b86d6" d="M126.92,88.41c-16.4,21.87-51.44,14.46-73.86,15.57,0,0-4,.19-8,.84,0,0,1.48-.65,3.43-1.3C64.27,98.05,71.68,96.94,81.32,92c18-9.18,35.87-29.29,39.57-50.14-6.85,20-27.7,37.35-46.61,44.3-13,4.82-36.42,9.45-36.42,9.45l-.93-.46C20.81,87.49,20.34,52.82,49.35,41.7c12.7-4.91,24.93-2.22,38.65-5.46,14.64-3.53,31.6-14.46,38.55-28.83C134.24,30.4,143.51,66.26,126.92,88.41Z"/><path class="b2dad2fd-2deb-4ce1-8886-2a4e968da840" d="M126.55,7.41c7.69,23,17,58.85.37,81-10.29,13.72-27.9,15.94-45.13,15.94-8.16,0-16.22-.46-23.36-.46-1.85,0-3.61,0-5.28.09,0,0-4,.19-8,.84,0,0,1.48-.65,3.43-1.3C64.36,98.05,71.78,96.94,81.42,92c18-9.18,35.86-29.29,39.57-50.14-6.86,20-27.71,37.35-46.62,44.3C61.4,91,38,95.64,38,95.64h0L37,95.18C20.81,87.49,20.34,52.82,49.35,41.7c12.7-4.91,24.93-2.22,38.65-5.46,14.64-3.43,31.6-14.46,38.55-28.83M127,.09l-3,6.12c-7,14.46-23.91,24.28-36.7,27.34a89,89,0,0,1-16.78,1.94c-7.13.38-14.55.75-22.15,3.62C30.54,46,23.68,61,23.22,72.75,22.75,84,27.57,93.69,35.45,97.68a5.21,5.21,0,0,0,2.32.83H39l.19-.18c5.37-1.11,24.55-5.19,36.05-9.36a91,91,0,0,0,25.11-14.64,75,75,0,0,1-20.2,15.38c-5.84,3-10.85,4.54-17.8,6.67-4.07,1.21-8.8,2.69-14.55,4.64-2,.64-3.52,1.39-3.61,1.39l-2,4.17,3.62,1.11a70.64,70.64,0,0,1,7.69-.84c1.57-.09,3.24-.09,5.09-.09q5.15,0,10.85.28c4.08.09,8.25.28,12.51.28,17.14,0,36.14-2,47.36-17,13.06-17.43,13.16-44.77.09-83.6L127,.09Z"/><path class="b2dad2fd-2deb-4ce1-8886-2a4e968da840" d="M200,33.81V83.32h-8v-4.6c-2.8,3.4-6.94,5.07-11.81,5.07-10.34,0-18-7.21-18-18.28s7.68-18.22,18-18.22c4.6,0,8.67,1.54,11.48,4.81V33.81Zm-8.21,31.7c0-6.81-4.6-11.14-10.61-11.14s-10.61,4.33-10.61,11.14,4.61,11.14,10.61,11.14S191.8,72.31,191.8,65.51Z"/><path class="b2dad2fd-2deb-4ce1-8886-2a4e968da840" d="M244.31,68.18H216.36c1,5.2,5.33,8.54,11.54,8.54a12.76,12.76,0,0,0,9.67-3.87L242.05,78c-3.21,3.8-8.21,5.8-14.35,5.8-11.95,0-19.69-7.67-19.69-18.28s7.81-18.22,18.42-18.22c10.41,0,18,7.28,18,18.42C244.45,66.38,244.38,67.38,244.31,68.18Zm-28-5.54h20.22A9.71,9.71,0,0,0,226.43,54,9.85,9.85,0,0,0,216.29,62.64Z"/><path class="b2dad2fd-2deb-4ce1-8886-2a4e968da840" d="M290.29,65.51c0,11.07-7.68,18.28-18.08,18.28A14.65,14.65,0,0,1,260.79,79V96.27h-8.34V47.69h7.94v4.67c2.81-3.4,6.94-5.07,11.82-5.07C282.61,47.29,290.29,54.5,290.29,65.51Zm-8.48,0c0-6.81-4.53-11.14-10.54-11.14s-10.61,4.33-10.61,11.14,4.61,11.14,10.61,11.14S281.81,72.31,281.81,65.51Z"/><path class="b2dad2fd-2deb-4ce1-8886-2a4e968da840" d="M295.29,65.51c0-10.68,8-18.22,18.95-18.22s19,7.54,19,18.22-7.94,18.28-19,18.28S295.29,76.18,295.29,65.51Zm29.56,0c0-6.81-4.54-11.14-10.61-11.14S303.7,58.7,303.7,65.51s4.54,11.14,10.54,11.14S324.85,72.31,324.85,65.51Z"/><path class="b2dad2fd-2deb-4ce1-8886-2a4e968da840" d="M337.19,79.79l3.21-6.34A23.94,23.94,0,0,0,352.81,77c5.27,0,7.47-1.47,7.47-3.94,0-6.81-22-.4-22-14.61,0-6.74,6.07-11.15,15.68-11.15,4.74,0,10.15,1.14,13.35,3.07l-3.2,6.34A19.55,19.55,0,0,0,353.88,54c-5.07,0-7.48,1.67-7.48,4,0,7.2,22,.8,22,14.74,0,6.67-6.14,11-16.15,11C346.34,83.79,340.4,82.06,337.19,79.79Z"/><path class="b2dad2fd-2deb-4ce1-8886-2a4e968da840" d="M374.49,36.82a5.08,5.08,0,0,1,5.34-5c3.07,0,5.34,2.07,5.34,4.81a5.35,5.35,0,0,1-10.68.2Zm1.14,10.87H384V83.32h-8.34Z"/><path class="b2dad2fd-2deb-4ce1-8886-2a4e968da840" d="M416.33,81.39a13.1,13.1,0,0,1-8,2.4c-7.8,0-12.27-4.14-12.27-12V54.63h-5.88V48h5.88V39.82h8.34V48h9.54v6.67h-9.54V71.58c0,3.47,1.73,5.34,4.94,5.34A7.52,7.52,0,0,0,414,75.45Z"/><path class="b2dad2fd-2deb-4ce1-8886-2a4e968da840" d="M419.13,79.79l3.21-6.34A23.94,23.94,0,0,0,434.75,77c5.27,0,7.47-1.47,7.47-3.94,0-6.81-22-.4-22-14.61,0-6.74,6.07-11.15,15.68-11.15,4.74,0,10.14,1.14,13.35,3.07L446,56.7A19.5,19.5,0,0,0,435.81,54c-5.07,0-7.47,1.67-7.47,4,0,7.2,22,.8,22,14.74,0,6.67-6.14,11-16.15,11C428.27,83.79,422.34,82.06,419.13,79.79Z"/><path d="M466.68,36.82a5.07,5.07,0,0,1,5.33-5c3.07,0,5.34,2.07,5.34,4.81a5.34,5.34,0,0,1-10.67.2Zm1.13,10.87h8.34V83.32h-8.34Z"/><path d="M522.19,62.91V83.32h-8.34V64c0-6.34-3.14-9.4-8.47-9.4-5.94,0-9.95,3.6-9.95,10.74v18h-8.34V47.69H495V52.3c2.74-3.27,7.08-5,12.28-5C515.85,47.29,522.19,52.16,522.19,62.91Z"/><path d="M531.67,36.82a5.07,5.07,0,0,1,5.33-5c3.07,0,5.34,2.07,5.34,4.81a5.34,5.34,0,0,1-10.67.2Zm1.13,10.87h8.34V83.32H532.8Z"/><path d="M573.5,81.39a13.09,13.09,0,0,1-8,2.4c-7.81,0-12.28-4.14-12.28-12V54.63h-5.87V48h5.87V39.82h8.34V48h9.54v6.67h-9.54V71.58c0,3.47,1.73,5.34,4.94,5.34a7.52,7.52,0,0,0,4.67-1.47Z"/><path d="M579.24,36.82a5.08,5.08,0,0,1,5.34-5c3.07,0,5.34,2.07,5.34,4.81a5.35,5.35,0,0,1-10.68.2Zm1.13,10.87h8.35V83.32h-8.35Z"/><path d="M629.49,62.44V83.32h-7.88V79c-2,3.07-5.87,4.8-11.21,4.8-8.14,0-13.28-4.47-13.28-10.67,0-5.94,4-10.61,14.82-10.61h9.2V62c0-4.87-2.93-7.74-8.87-7.74a17.67,17.67,0,0,0-10.81,3.54l-3.27-6.07c3.8-2.94,9.34-4.41,15.08-4.41C623.55,47.29,629.49,52.16,629.49,62.44Zm-8.35,9.74V68h-8.6c-5.68,0-7.21,2.14-7.21,4.74,0,3,2.54,4.94,6.81,4.94C616.21,77.72,619.74,75.85,621.14,72.18Z"/><path d="M640.16,33.81h8.34V83.32h-8.34Z"/><path d="M658.31,36.82a5.08,5.08,0,0,1,5.34-5c3.07,0,5.34,2.07,5.34,4.81a5.35,5.35,0,0,1-10.68.2Zm1.13,10.87h8.34V83.32h-8.34Z"/><path d="M706.55,76.65v6.67H675.79V78.05l19.55-23.68H676.19V47.69H706V53L686.4,76.65Z"/><path d="M734.84,47.29v7.94a10.82,10.82,0,0,0-1.93-.2c-6.34,0-10.34,3.74-10.34,11V83.32h-8.35V47.69h7.95V52.9C724.57,49.16,728.9,47.29,734.84,47.29Z"/></g></g></svg>