<svg xmlns="http://www.w3.org/2000/svg" viewBox="0 0 142.14 127.61"><defs><style>.e4bf0cd5-9eb3-456b-9cf6-dac8e38b0a0b{fill:#6db33f;}.baedc2c1-506b-4702-8a51-2f40af6aabae{fill:#fff;}</style></defs><g id="a9740146-78c1-41f3-a00b-6f1e347fe8e5" data-name="Layer 2"><g id="b442f0c3-de62-4320-bb04-024ea82dd3b7" data-name="Layer 1"><path class="e4bf0cd5-9eb3-456b-9cf6-dac8e38b0a0b" d="M140.26,56.16l-28-48.47C109.87,3.52,103.84,0,99,0h-56C38.23,0,32.2,3.43,29.8,7.69l-28,48.47C-.6,60.33-.6,67.28,1.81,71.45l28,48.47c2.4,4.17,8.43,7.69,13.25,7.69H99c4.82,0,10.85-3.43,13.26-7.69l28-48.47C142.77,67.19,142.77,60.33,140.26,56.16Z"/><circle class="baedc2c1-506b-4702-8a51-2f40af6aabae" cx="32.11" cy="104.91" r="5.65"/><path class="baedc2c1-506b-4702-8a51-2f40af6aabae" d="M126.92,88.41c-16.4,21.87-51.44,14.46-73.86,15.57,0,0-4,.19-8,.84,0,0,1.48-.65,3.43-1.3C64.27,98.05,71.68,96.94,81.32,92c18-9.18,35.87-29.29,39.57-50.14-6.85,20-27.7,37.35-46.61,44.3-13,4.82-36.42,9.45-36.42,9.45l-.93-.46C20.81,87.49,20.34,52.82,49.35,41.7c12.7-4.91,24.93-2.22,38.65-5.46,14.64-3.53,31.6-14.46,38.55-28.83C134.24,30.4,143.51,66.26,126.92,88.41Z"/><path class="e4bf0cd5-9eb3-456b-9cf6-dac8e38b0a0b" d="M126.55,7.41c7.69,23,17,58.85.37,81-10.29,13.72-27.9,15.94-45.13,15.94-8.16,0-16.22-.46-23.36-.46-1.85,0-3.61,0-5.28.09,0,0-4,.19-8,.84,0,0,1.48-.65,3.43-1.3C64.36,98.05,71.78,96.94,81.42,92c18-9.18,35.86-29.29,39.57-50.14-6.86,20-27.71,37.35-46.62,44.3C61.4,91,38,95.64,38,95.64h0L37,95.18C20.81,87.49,20.34,52.82,49.35,41.7c12.7-4.91,24.93-2.22,38.65-5.46,14.64-3.43,31.6-14.46,38.55-28.83M127,.09l-3,6.12c-7,14.46-23.91,24.28-36.7,27.34a89,89,0,0,1-16.78,1.94c-7.13.38-14.55.75-22.15,3.62C30.54,46,23.68,61,23.22,72.75,22.75,84,27.57,93.69,35.45,97.68a5.21,5.21,0,0,0,2.32.83H39l.19-.18c5.37-1.11,24.55-5.19,36.05-9.36a91,91,0,0,0,25.11-14.64,75,75,0,0,1-20.2,15.38c-5.84,3-10.85,4.54-17.8,6.67-4.07,1.21-8.8,2.69-14.55,4.64-2,.64-3.52,1.39-3.61,1.39l-2,4.17,3.62,1.11a70.64,70.64,0,0,1,7.69-.84c1.57-.09,3.24-.09,5.09-.09q5.15,0,10.85.28c4.08.09,8.25.28,12.51.28,17.14,0,36.14-2,47.36-17,13.06-17.43,13.16-44.77.09-83.6L127,.09Z"/></g></g></svg>