<?xml version="1.0" encoding="UTF-8"?>
<svg id="Layer_2" data-name="Layer 2" xmlns="http://www.w3.org/2000/svg" viewBox="0 0 918 175.02">
  <defs>
    <style>
      .cls-1 {
        letter-spacing: -.04em;
      }

      .cls-2 {
        fill: #cec5ce;
      }

      .cls-3 {
        letter-spacing: 0em;
      }

      .cls-4 {
        fill: #fff;
        font-family: FranklinGothicURW-Dem, 'FranklinGothic URW';
        font-size: 27.86px;
      }

      .cls-5 {
        letter-spacing: 0em;
      }

      .cls-6 {
        fill: #e1e3e4;
      }

      .cls-7 {
        fill: #bc0303;
      }

      .cls-8 {
        fill: #353e41;
      }
    </style>
  </defs>
  <g id="Layer_1-2" data-name="Layer 1">
    <g>
      <g>
        <rect class="cls-2" width="918" height="9.02"/>
        <rect class="cls-7" x="22" width="23" height="9"/>
        <rect class="cls-7" x="67" width="23" height="9"/>
        <rect class="cls-7" x="112" width="23" height="9"/>
        <rect class="cls-7" x="157" width="23" height="9"/>
        <rect class="cls-7" x="202" width="23" height="9"/>
        <rect class="cls-7" x="247" width="23" height="9"/>
        <rect class="cls-7" x="292" width="23" height="9"/>
        <rect class="cls-7" x="337" width="23" height="9"/>
        <rect class="cls-7" x="382" width="23" height="9"/>
        <rect class="cls-7" x="427" width="23" height="9"/>
        <rect class="cls-7" x="472" width="23" height="9"/>
        <rect class="cls-7" x="517" width="23" height="9"/>
        <rect class="cls-7" x="562" width="23" height="9"/>
        <rect class="cls-7" x="607" width="23" height="9"/>
        <rect class="cls-7" x="652" width="23" height="9"/>
        <rect class="cls-7" x="697" width="23" height="9"/>
        <rect class="cls-7" x="742" width="23" height="9"/>
        <rect class="cls-7" x="787" width="23" height="9"/>
        <rect class="cls-7" x="832" width="23" height="9"/>
        <rect class="cls-7" x="877" width="23" height="9"/>
      </g>
      <g>
        <rect class="cls-2" y="166" width="918" height="9.02"/>
        <rect class="cls-7" x="22" y="166" width="23" height="9"/>
        <rect class="cls-7" x="67" y="166" width="23" height="9"/>
        <rect class="cls-7" x="112" y="166" width="23" height="9"/>
        <rect class="cls-7" x="157" y="166" width="23" height="9"/>
        <rect class="cls-7" x="202" y="166" width="23" height="9"/>
        <rect class="cls-7" x="247" y="166" width="23" height="9"/>
        <rect class="cls-7" x="292" y="166" width="23" height="9"/>
        <rect class="cls-7" x="337" y="166" width="23" height="9"/>
        <rect class="cls-7" x="382" y="166" width="23" height="9"/>
        <rect class="cls-7" x="427" y="166" width="23" height="9"/>
        <rect class="cls-7" x="472" y="166" width="23" height="9"/>
        <rect class="cls-7" x="517" y="166" width="23" height="9"/>
        <rect class="cls-7" x="562" y="166" width="23" height="9"/>
        <rect class="cls-7" x="607" y="166" width="23" height="9"/>
        <rect class="cls-7" x="652" y="166" width="23" height="9"/>
        <rect class="cls-7" x="697" y="166" width="23" height="9"/>
        <rect class="cls-7" x="742" y="166" width="23" height="9"/>
        <rect class="cls-7" x="787" y="166" width="23" height="9"/>
        <rect class="cls-7" x="832" y="166" width="23" height="9"/>
        <rect class="cls-7" x="877" y="166" width="23" height="9"/>
      </g>
      <g>
        <g>
          <rect class="cls-8" x=".25" y="8.74" width="917.75" height="157.83"/>
          <text class="cls-4" transform="translate(15.86 48.82) rotate(90)"><tspan class="cls-5" x="0" y="0">S</tspan><tspan class="cls-1" x="16.32" y="0">T</tspan><tspan x="28.75" y="0">A</tspan><tspan class="cls-3" x="45.68" y="0">R</tspan><tspan x="64.04" y="0">T</tspan></text>
          <text class="cls-4" transform="translate(864.86 45.75) rotate(90)"><tspan x="0" y="0">FINISH</tspan></text>
          <g>
            <rect class="cls-6" x="151.25" y="83.5" width="55" height="6"/>
            <rect class="cls-6" x="231.25" y="83.5" width="55" height="6"/>
            <rect class="cls-6" x="311.25" y="83.5" width="55" height="6"/>
            <rect class="cls-6" x="391.25" y="83.5" width="55" height="6"/>
            <rect class="cls-6" x="471.25" y="83.5" width="55" height="6"/>
            <rect class="cls-6" x="551.25" y="83.5" width="55" height="6"/>
            <rect class="cls-6" x="631.25" y="83.5" width="55" height="6"/>
            <rect class="cls-6" x="711.25" y="83.5" width="55" height="6"/>
          </g>
        </g>
        <g>
          <g>
            <rect class="cls-6" x="62" y="8" width="4" height="157"/>
            <rect class="cls-6" x="108" y="8" width="4" height="157"/>
          </g>
          <g>
            <g>
              <rect class="cls-6" x="68" y="9" width="12" height="12"/>
              <rect class="cls-6" x="94" y="9" width="12" height="12"/>
              <rect class="cls-6" x="81" y="22" width="12" height="12"/>
            </g>
            <g>
              <rect class="cls-6" x="68" y="35" width="12" height="12"/>
              <rect class="cls-6" x="94" y="35" width="12" height="12"/>
              <rect class="cls-6" x="81" y="48" width="12" height="12"/>
            </g>
            <g>
              <rect class="cls-6" x="68" y="61" width="12" height="12"/>
              <rect class="cls-6" x="94" y="61" width="12" height="12"/>
              <rect class="cls-6" x="81" y="74" width="12" height="12"/>
            </g>
            <g>
              <rect class="cls-6" x="68" y="87" width="12" height="12"/>
              <rect class="cls-6" x="94" y="87" width="12" height="12"/>
              <rect class="cls-6" x="81" y="100" width="12" height="12"/>
            </g>
            <g>
              <rect class="cls-6" x="68" y="113" width="12" height="12"/>
              <rect class="cls-6" x="94" y="113" width="12" height="12"/>
              <rect class="cls-6" x="81" y="126" width="12" height="12"/>
            </g>
            <g>
              <rect class="cls-6" x="68" y="139" width="12" height="12"/>
              <rect class="cls-6" x="94" y="139" width="12" height="12"/>
              <rect class="cls-6" x="81" y="152" width="12" height="12"/>
            </g>
          </g>
        </g>
        <g>
          <g>
            <rect class="cls-6" x="793" y="9" width="4" height="157"/>
            <rect class="cls-6" x="839" y="9" width="4" height="157"/>
          </g>
          <g>
            <g>
              <rect class="cls-6" x="799" y="10" width="12" height="12"/>
              <rect class="cls-6" x="825" y="10" width="12" height="12"/>
              <rect class="cls-6" x="812" y="23" width="12" height="12"/>
            </g>
            <g>
              <rect class="cls-6" x="799" y="36" width="12" height="12"/>
              <rect class="cls-6" x="825" y="36" width="12" height="12"/>
              <rect class="cls-6" x="812" y="49" width="12" height="12"/>
            </g>
            <g>
              <rect class="cls-6" x="799" y="62" width="12" height="12"/>
              <rect class="cls-6" x="825" y="62" width="12" height="12"/>
              <rect class="cls-6" x="812" y="75" width="12" height="12"/>
            </g>
            <g>
              <rect class="cls-6" x="799" y="88" width="12" height="12"/>
              <rect class="cls-6" x="825" y="88" width="12" height="12"/>
              <rect class="cls-6" x="812" y="101" width="12" height="12"/>
            </g>
            <g>
              <rect class="cls-6" x="799" y="114" width="12" height="12"/>
              <rect class="cls-6" x="825" y="114" width="12" height="12"/>
              <rect class="cls-6" x="812" y="127" width="12" height="12"/>
            </g>
            <g>
              <rect class="cls-6" x="799" y="140" width="12" height="12"/>
              <rect class="cls-6" x="825" y="140" width="12" height="12"/>
              <rect class="cls-6" x="812" y="153" width="12" height="12"/>
            </g>
          </g>
        </g>
      </g>
    </g>
  </g>
</svg>