<svg xmlns="http://www.w3.org/2000/svg" xmlns:xlink="http://www.w3.org/1999/xlink" width="42.778" height="44.398" viewBox="0 0 42.778 44.398">
  <defs>
    <style>
      .cls-1 {
        fill: none;
      }

      .cls-2 {
        opacity: 0.6;
        clip-path: url(#clip-path);
      }

      .cls-3 {
        fill: url(#linear-gradient);
      }
    </style>
    <clipPath id="clip-path">
      <path id="Path_33" data-name="Path 33" class="cls-1" d="M43.051,20.21c-1.835.6-2.9,2.3-4.425,3.408s-3.385,1.687-4.507,3.231c-1.11,1.527-2.53,2.978-3.126,4.813-.575,1.77.166,3.771.166,5.732a16.6,16.6,0,0,0,.978,5.362c.6,1.833.158,4.172,1.27,5.7a19.469,19.469,0,0,0,4.25,4.045c1.527,1.112,3.773.812,5.609,1.408,1.772.575,3.406,2.793,5.368,2.793a21.483,21.483,0,0,0,6.125-.458,21.231,21.231,0,0,0,5.387-3.007c1.541-1.122,1.387-4.115,2.507-5.658a16.675,16.675,0,0,0,2.682-4.76,17.1,17.1,0,0,0,1.137-5.426c0-1.961-1.459-3.364-2.035-5.136-.6-1.833-.843-3.4-1.955-4.924-1.122-1.544-1.063-4.289-2.606-5.414-1.527-1.112-3.7-1.492-5.535-2.09a18.794,18.794,0,0,0-5.707-.919,18.244,18.244,0,0,0-5.584,1.3" transform="translate(-30.775 -18.911)"/>
    </clipPath>
    <linearGradient id="linear-gradient" x1="-1.744" y1="5.426" x2="-1.687" y2="5.426" gradientUnits="objectBoundingBox">
      <stop offset="0" stop-color="#732fd8"/>
      <stop offset="0.352" stop-color="#864cdd"/>
      <stop offset="0.56" stop-color="#8f59e0"/>
      <stop offset="1" stop-color="#8f59e0"/>
    </linearGradient>
  </defs>
  <g id="comet_stone" class="cls-2" transform="translate(42.778 36.976) rotate(168)">
    <rect id="Rectangle_35" data-name="Rectangle 35" class="cls-3" width="36.055" height="37.909" transform="translate(-0.357 0)"/>
  </g>
</svg>
