<svg xmlns="http://www.w3.org/2000/svg" xmlns:xlink="http://www.w3.org/1999/xlink" width="363.737" height="362.457" viewBox="0 0 363.737 362.457">
  <defs>
    <clipPath id="clip-path">
      <rect id="Rectangle_32" data-name="Rectangle 32" width="306.968" height="305.306" fill="none"/>
    </clipPath>
    <clipPath id="clip-path-3">
      <path id="Path_3" data-name="Path 3" d="M46.1,20.532c-2.291.744-3.615,2.868-5.524,4.254-1.924,1.4-4.226,2.106-5.626,4.033-1.385,1.906-3.158,3.718-3.9,6.009-.718,2.209.208,4.708.208,7.155a20.727,20.727,0,0,0,1.221,6.694c.744,2.289.2,5.208,1.586,7.117a24.3,24.3,0,0,0,5.306,5.049c1.906,1.388,4.71,1.013,7,1.757,2.212.718,4.251,3.487,6.7,3.487s5.436.146,7.645-.572a26.5,26.5,0,0,0,6.724-3.753c1.924-1.4,1.732-5.136,3.13-7.063a20.816,20.816,0,0,0,3.348-5.942,21.351,21.351,0,0,0,1.419-6.773c0-2.448-1.822-4.2-2.54-6.411-.744-2.288-1.052-4.241-2.44-6.147-1.4-1.927-1.326-5.354-3.253-6.758C65.2,21.279,62.484,20.8,60.2,20.058a23.461,23.461,0,0,0-7.125-1.147A22.774,22.774,0,0,0,46.1,20.532" transform="translate(-30.775 -18.911)" fill="none"/>
    </clipPath>
    <linearGradient id="linear-gradient" x1="-1.744" y1="5.426" x2="-1.687" y2="5.426" gradientUnits="objectBoundingBox">
      <stop offset="0" stop-color="#732fd8"/>
      <stop offset="0.352" stop-color="#864cdd"/>
      <stop offset="0.56" stop-color="#8f59e0"/>
      <stop offset="1" stop-color="#8f59e0"/>
    </linearGradient>
    <clipPath id="clip-path-5">
      <path id="Path_5" data-name="Path 5" d="M54.354,106.367c-1.031.336-1.629,1.293-2.489,1.917s-1.906.952-2.537,1.819a10.444,10.444,0,0,0-1.76,2.707c-.323,1,.095,2.122.095,3.225a9.276,9.276,0,0,0,.552,3.017c.336,1.031.087,2.35.713,3.21a10.887,10.887,0,0,0,2.394,2.273c.857.626,2.122.459,3.156.8,1,.323,1.914,1.57,3.017,1.57a12.037,12.037,0,0,0,3.448-.259,11.9,11.9,0,0,0,3.03-1.691c.867-.631.78-2.314,1.411-3.184a9.271,9.271,0,0,0,1.509-2.676,9.659,9.659,0,0,0,.639-3.056c0-1.1-.821-1.894-1.144-2.886a8.907,8.907,0,0,0-1.1-2.771c-.631-.87-.6-2.417-1.468-3.048a11.264,11.264,0,0,0-3.115-1.175,10.553,10.553,0,0,0-3.212-.518,10.276,10.276,0,0,0-3.14.731" transform="translate(-47.445 -105.636)" fill="none"/>
    </clipPath>
    <linearGradient id="linear-gradient-2" x1="-5.991" y1="1.607" x2="-5.864" y2="1.607" xlink:href="#linear-gradient"/>
    <clipPath id="clip-path-7">
      <path id="Path_7" data-name="Path 7" d="M65.1,7.525c-1.144.372-1.806,1.434-2.758,2.129s-2.117,1.052-2.814,2.017a11.507,11.507,0,0,0-1.952,3c-.359,1.106.105,2.355.105,3.579a10.416,10.416,0,0,0,.608,3.346c.372,1.144.1,2.607.8,3.558a12.091,12.091,0,0,0,2.653,2.525c.952.7,2.355.508,3.5.88,1.108.359,2.124,1.745,3.351,1.745a13.5,13.5,0,0,0,3.823-.287,13.27,13.27,0,0,0,3.364-1.878c.962-.7.865-2.568,1.565-3.53a10.434,10.434,0,0,0,1.673-2.971,10.676,10.676,0,0,0,.711-3.387c0-1.224-.911-2.1-1.27-3.207a9.928,9.928,0,0,0-1.219-3.071c-.7-.965-.665-2.681-1.629-3.379a12.32,12.32,0,0,0-3.456-1.306,11.67,11.67,0,0,0-3.561-.575,11.4,11.4,0,0,0-3.487.811" transform="translate(-57.437 -6.714)" fill="none"/>
    </clipPath>
    <linearGradient id="linear-gradient-3" x1="-6.538" y1="12.176" x2="-6.424" y2="12.176" xlink:href="#linear-gradient"/>
    <clipPath id="clip-path-9">
      <path id="Path_9" data-name="Path 9" d="M22.144,33.04c-.708.231-1.121.89-1.711,1.321s-1.311.654-1.745,1.252a7.035,7.035,0,0,0-1.214,1.863,7.559,7.559,0,0,0,.064,2.219,6.483,6.483,0,0,0,.38,2.076c.231.711.062,1.616.493,2.206a7.51,7.51,0,0,0,1.645,1.568c.593.431,1.462.316,2.173.547.688.221,1.319,1.08,2.078,1.08a8.389,8.389,0,0,0,2.371-.177,8.19,8.19,0,0,0,2.086-1.165c.6-.434.539-1.593.972-2.191A6.42,6.42,0,0,0,30.772,41.8a6.617,6.617,0,0,0,.441-2.1c0-.759-.564-1.3-.788-1.988a6.126,6.126,0,0,0-.757-1.906c-.434-.6-.411-1.663-1.008-2.1a7.7,7.7,0,0,0-2.145-.811,7.23,7.23,0,0,0-2.209-.357,7.133,7.133,0,0,0-2.163.5" transform="translate(-17.39 -32.537)" fill="none"/>
    </clipPath>
    <linearGradient id="linear-gradient-4" x1="-3.186" y1="15.113" x2="-3.003" y2="15.113" xlink:href="#linear-gradient"/>
    <clipPath id="clip-path-11">
      <path id="Path_11" data-name="Path 11" d="M86.2,57.061c-.816.267-1.288,1.024-1.968,1.516s-1.5.752-2,1.437a8.224,8.224,0,0,0-1.391,2.14,8.652,8.652,0,0,0,.074,2.548,7.362,7.362,0,0,0,.436,2.383c.264.816.072,1.857.564,2.535a8.621,8.621,0,0,0,1.891,1.8c.677.5,1.675.362,2.494.626.788.254,1.511,1.242,2.383,1.242a9.531,9.531,0,0,0,2.725-.205A9.365,9.365,0,0,0,93.8,71.744c.685-.5.616-1.829,1.116-2.514a7.437,7.437,0,0,0,1.19-2.114,7.6,7.6,0,0,0,.505-2.414c0-.872-.649-1.5-.9-2.283a7.092,7.092,0,0,0-.87-2.188c-.5-.685-.472-1.906-1.157-2.407a8.875,8.875,0,0,0-2.463-.929,8.278,8.278,0,0,0-2.537-.411,8.162,8.162,0,0,0-2.481.577" transform="translate(-80.745 -56.484)" fill="none"/>
    </clipPath>
    <linearGradient id="linear-gradient-5" x1="-12.916" y1="9.517" x2="-12.756" y2="9.517" xlink:href="#linear-gradient"/>
    <clipPath id="clip-path-13">
      <path id="Path_13" data-name="Path 13" d="M52.444,75.958c0,6.234,3.864,10.8,10.1,10.8s11.517-4.569,11.517-10.8S68.777,63.771,62.542,63.771s-10.1,5.952-10.1,12.187" transform="translate(-52.444 -63.771)" fill="none"/>
    </clipPath>
    <linearGradient id="linear-gradient-6" x1="-6.225" y1="6.163" x2="-6.106" y2="6.163" xlink:href="#linear-gradient"/>
    <clipPath id="clip-path-15">
      <path id="Path_15" data-name="Path 15" d="M77.043,83.727c0,3.82,2.365,6.619,6.186,6.619a6.791,6.791,0,0,0,7.055-6.619c0-3.818-3.238-7.463-7.055-7.463s-6.186,3.646-6.186,7.463" transform="translate(-77.043 -76.264)" fill="none"/>
    </clipPath>
    <linearGradient id="linear-gradient-7" x1="-14.928" y1="7.786" x2="-14.734" y2="7.786" xlink:href="#linear-gradient"/>
    <clipPath id="clip-path-17">
      <path id="Path_17" data-name="Path 17" d="M91.057,22.56a1.52,1.52,0,0,0,1.55,1.655,1.7,1.7,0,0,0,1.762-1.655A1.882,1.882,0,0,0,92.607,20.7a1.707,1.707,0,0,0-1.55,1.865" transform="translate(-91.057 -20.695)" fill="none"/>
    </clipPath>
    <linearGradient id="linear-gradient-8" x1="-70.532" y1="71.651" x2="-69.757" y2="71.651" xlink:href="#linear-gradient"/>
    <clipPath id="clip-path-19">
      <path id="Path_19" data-name="Path 19" d="M104.7,82.8a3.042,3.042,0,0,0,3.094,3.312,3.4,3.4,0,0,0,3.528-3.312,3.762,3.762,0,0,0-3.528-3.73c-1.909,0-3.094,1.822-3.094,3.73" transform="translate(-104.697 -79.066)" fill="none"/>
    </clipPath>
    <linearGradient id="linear-gradient-9" x1="-40.565" y1="14.548" x2="-40.177" y2="14.548" xlink:href="#linear-gradient"/>
    <clipPath id="clip-path-21">
      <path id="Path_21" data-name="Path 21" d="M112.478,57.473a3.038,3.038,0,0,0,3.094,3.307,3.394,3.394,0,0,0,3.528-3.307,3.765,3.765,0,0,0-3.528-3.736c-1.911,0-3.094,1.824-3.094,3.736" transform="translate(-112.478 -53.737)" fill="none"/>
    </clipPath>
    <linearGradient id="linear-gradient-10" x1="-43.58" y1="23.775" x2="-43.192" y2="23.775" xlink:href="#linear-gradient"/>
    <clipPath id="clip-path-23">
      <path id="Path_23" data-name="Path 23" d="M30.78,92.79a3.038,3.038,0,0,0,3.092,3.31A3.4,3.4,0,0,0,37.4,92.79a3.764,3.764,0,0,0-3.528-3.733c-1.909,0-3.092,1.824-3.092,3.733" transform="translate(-30.78 -89.057)" fill="none"/>
    </clipPath>
    <linearGradient id="linear-gradient-11" x1="-11.93" y1="10.908" x2="-11.543" y2="10.908" xlink:href="#linear-gradient"/>
    <clipPath id="clip-path-25">
      <path id="Path_25" data-name="Path 25" d="M71.258,48.367a3.039,3.039,0,0,0,3.094,3.307,3.4,3.4,0,0,0,3.53-3.307,3.765,3.765,0,0,0-3.53-3.736c-1.909,0-3.094,1.824-3.094,3.736" transform="translate(-71.258 -44.631)" fill="none"/>
    </clipPath>
    <linearGradient id="linear-gradient-12" x1="-27.598" y1="27.093" x2="-27.211" y2="27.093" xlink:href="#linear-gradient"/>
    <clipPath id="clip-path-27">
      <path id="Path_27" data-name="Path 27" d="M17.531,68.271a3.038,3.038,0,0,0,3.092,3.307,3.394,3.394,0,0,0,3.528-3.307,3.763,3.763,0,0,0-3.528-3.733c-1.909,0-3.092,1.822-3.092,3.733" transform="translate(-17.531 -64.538)" fill="none"/>
    </clipPath>
    <linearGradient id="linear-gradient-13" x1="-6.795" y1="19.848" x2="-6.407" y2="19.848" xlink:href="#linear-gradient"/>
    <clipPath id="clip-path-29">
      <rect id="Rectangle_28" data-name="Rectangle 28" width="77.575" height="74.162" fill="none"/>
    </clipPath>
    <clipPath id="clip-path-30">
      <rect id="Rectangle_29" data-name="Rectangle 29" width="109.405" height="101.404" fill="none"/>
    </clipPath>
    <clipPath id="clip-path-31">
      <rect id="Rectangle_30" data-name="Rectangle 30" width="73.689" height="70.447" fill="none"/>
    </clipPath>
  </defs>
  <g id="comet" transform="translate(673.856 627.34) rotate(168)" opacity="0.67">
    <g id="Group_65" data-name="Group 65" transform="translate(235 386)">
      <g id="Group_64" data-name="Group 64" clip-path="url(#clip-path)">
        <path id="Path_1" data-name="Path 1" d="M152.684,0,134.122.421,117.153,9.144,98.009,9.131,82.13,18.862,66.765,28.825l-12.8,13.051L38.661,52.3,26.241,66.044,16.369,81.779,9.314,98.95l-5,17.805L0,134.781l3.759,18.536L.116,171.841l6.506,17.472,2.95,18.272,9.287,15.955L30.3,237.775,41.514,251.8,53.426,265.36l13.526,12.174,15.473,9.67,15.812,9.7,18.831.934,17.659,3.374,17.957,4.1,17.982-3.879,18.6.328,17.887-4.8,17.03-7.394,15.294-10.491L252.1,265.547l12.333-13.228,14.914-11.573,6.791-17.395,6.2-17.077,5.072-17.287L304.9,171.8l2.068-18.483-6.8-17.908,1.452-18.8-5.714-17.605-8.756-16.25-10.2-15.2L264.4,54.355,251.95,41.268,239.335,27.775l-16.066-8.959-16.481-8.174L188.664,7.33,171.157,1.165Z" transform="translate(0.001 0)" fill="#fffaf4"/>
        <g id="Group_2" data-name="Group 2">
          <g id="Group_1" data-name="Group 1" clip-path="url(#clip-path)">
            <path id="Path_2" data-name="Path 2" d="M56.2,74.35c-3.112,0-5.377-1.66-7.03-2.871a11.937,11.937,0,0,0-1.308-.885,13.256,13.256,0,0,0-1.806-.3,13.4,13.4,0,0,1-6.578-2.173,28.849,28.849,0,0,1-6.432-6.178,12.759,12.759,0,0,1-2.07-6.737,10.872,10.872,0,0,0-.249-1.814,25.769,25.769,0,0,1-1.473-8.277,16.007,16.007,0,0,0-.2-1.983,14.612,14.612,0,0,1,.241-6.758,20.01,20.01,0,0,1,3.674-6.193c.328-.416.654-.829.96-1.247a15.02,15.02,0,0,1,5.183-4.205,16.177,16.177,0,0,0,1.578-.96,14.575,14.575,0,0,0,1.339-1.211,14.341,14.341,0,0,1,5.616-3.777l.87-.287A23.91,23.91,0,0,1,56.2,16.911a28.561,28.561,0,0,1,8.71,1.4c.518.169,1.062.321,1.611.477a20.307,20.307,0,0,1,6.735,2.863c2.5,1.822,3.3,4.482,3.892,6.424a11.291,11.291,0,0,0,.523,1.511A18.27,18.27,0,0,1,80.383,35.7c.133.457.269.926.428,1.414a10.075,10.075,0,0,0,.736,1.47A12.894,12.894,0,0,1,83.6,45.115a25.645,25.645,0,0,1-1.634,8.243,25.361,25.361,0,0,1-4.118,7.492c-.056.139-.267.931-.4,1.455-.541,2.052-1.283,4.867-3.856,6.737a30.45,30.45,0,0,1-8.159,4.485,22.78,22.78,0,0,1-7.012.836Z" transform="translate(45.049 26.476)" fill="#c5c3ff"/>
          </g>
        </g>
        <g id="Group_4" data-name="Group 4" transform="translate(78.955 48.518)">
          <g id="Group_3" data-name="Group 3" clip-path="url(#clip-path-3)">
            <rect id="Rectangle_3" data-name="Rectangle 3" width="45.008" height="47.322" transform="translate(-0.445 0)" fill="url(#linear-gradient)"/>
          </g>
        </g>
        <g id="Group_6" data-name="Group 6">
          <g id="Group_5" data-name="Group 5" clip-path="url(#clip-path)">
            <path id="Path_4" data-name="Path 4" d="M58.906,130.624a5.288,5.288,0,0,1-3.168-1.293,5.062,5.062,0,0,0-.59-.4,5.625,5.625,0,0,0-.813-.133,6.079,6.079,0,0,1-2.966-.98,13.04,13.04,0,0,1-2.9-2.786A5.738,5.738,0,0,1,47.537,122a4.975,4.975,0,0,0-.113-.818,11.56,11.56,0,0,1-.664-3.73,7.781,7.781,0,0,0-.087-.9,6.532,6.532,0,0,1,.108-3.043,9.028,9.028,0,0,1,1.655-2.794c.149-.187.3-.372.434-.562A6.751,6.751,0,0,1,51.2,108.26a7.526,7.526,0,0,0,.711-.434,6.183,6.183,0,0,0,.605-.547,6.466,6.466,0,0,1,2.53-1.7l.393-.131a10.777,10.777,0,0,1,3.464-.713,12.854,12.854,0,0,1,3.925.631c.233.077.48.144.726.215a9.13,9.13,0,0,1,3.035,1.29,5.081,5.081,0,0,1,1.755,2.9,5.147,5.147,0,0,0,.236.68,8.227,8.227,0,0,1,1.221,2.758c.059.205.121.418.192.636a4.543,4.543,0,0,0,.334.662,5.832,5.832,0,0,1,.926,2.943,11.594,11.594,0,0,1-.736,3.715,11.45,11.45,0,0,1-1.857,3.376c-.026.064-.118.421-.182.657a5.008,5.008,0,0,1-1.737,3.038,13.739,13.739,0,0,1-3.676,2.019,10.265,10.265,0,0,1-3.161.377Z" transform="translate(72.869 163.973)" fill="#c5c3ff"/>
          </g>
        </g>
        <g id="Group_8" data-name="Group 8" transform="translate(121.725 271.019)">
          <g id="Group_7" data-name="Group 7" clip-path="url(#clip-path-5)">
            <rect id="Rectangle_5" data-name="Rectangle 5" width="20.286" height="21.33" transform="translate(-0.201)" fill="url(#linear-gradient-2)"/>
          </g>
        </g>
        <g id="Group_10" data-name="Group 10">
          <g id="Group_9" data-name="Group 9" clip-path="url(#clip-path)">
            <path id="Path_6" data-name="Path 6" d="M70.151,34.433A5.84,5.84,0,0,1,66.636,33a5.99,5.99,0,0,0-.654-.441,6.425,6.425,0,0,0-.9-.149,6.714,6.714,0,0,1-3.289-1.088,14.432,14.432,0,0,1-3.217-3.089,6.385,6.385,0,0,1-1.034-3.369,5.688,5.688,0,0,0-.123-.908,12.8,12.8,0,0,1-.739-4.138,7.965,7.965,0,0,0-.1-.99,7.288,7.288,0,0,1,.121-3.379,9.974,9.974,0,0,1,1.837-3.1c.164-.208.328-.416.48-.623a7.53,7.53,0,0,1,2.591-2.1,7.6,7.6,0,0,0,.788-.48,6.779,6.779,0,0,0,.672-.605,7.155,7.155,0,0,1,2.807-1.888l.434-.144a12.007,12.007,0,0,1,3.843-.79,14.229,14.229,0,0,1,4.354.7c.259.082.531.159.808.236a10.129,10.129,0,0,1,3.366,1.434A5.656,5.656,0,0,1,80.626,11.3a5.805,5.805,0,0,0,.259.754,9.124,9.124,0,0,1,1.357,3.058c.067.228.133.464.213.708a5.006,5.006,0,0,0,.369.734,6.472,6.472,0,0,1,1.026,3.263,12.86,12.86,0,0,1-.816,4.123,12.7,12.7,0,0,1-2.06,3.746c-.028.069-.133.467-.2.726a5.543,5.543,0,0,1-1.927,3.371,15.353,15.353,0,0,1-4.079,2.242,11.389,11.389,0,0,1-3.5.416Z" transform="translate(88.357 8.946)" fill="#c5c3ff"/>
          </g>
        </g>
        <g id="Group_12" data-name="Group 12" transform="translate(147.36 17.225)">
          <g id="Group_11" data-name="Group 11" clip-path="url(#clip-path-7)">
            <rect id="Rectangle_7" data-name="Rectangle 7" width="22.505" height="23.66" transform="translate(-0.223 0)" fill="url(#linear-gradient-3)"/>
          </g>
        </g>
        <g id="Group_14" data-name="Group 14">
          <g id="Group_13" data-name="Group 13" clip-path="url(#clip-path)">
            <path id="Path_8" data-name="Path 8" d="M25.278,49.733a3.645,3.645,0,0,1-2.181-.89,3.439,3.439,0,0,0-.405-.275,3.911,3.911,0,0,0-.562-.092,4.18,4.18,0,0,1-2.04-.675,9.014,9.014,0,0,1-2-1.917,3.994,3.994,0,0,1-.641-2.091,3.15,3.15,0,0,0-.077-.562,8.024,8.024,0,0,1-.457-2.568,4.66,4.66,0,0,0-.062-.613,4.53,4.53,0,0,1,.074-2.1,6.2,6.2,0,0,1,1.142-1.922c.1-.128.2-.257.3-.387a4.636,4.636,0,0,1,1.606-1.3,5.668,5.668,0,0,0,.49-.3,4.189,4.189,0,0,0,.416-.377,4.443,4.443,0,0,1,1.742-1.17l.269-.09a7.43,7.43,0,0,1,2.383-.49,8.838,8.838,0,0,1,2.7.434c.162.051.328.1.5.146a6.277,6.277,0,0,1,2.088.89,3.507,3.507,0,0,1,1.208,1.991,3.224,3.224,0,0,0,.162.469,5.7,5.7,0,0,1,.842,1.9c.041.141.082.287.131.439a3.241,3.241,0,0,0,.228.454,4,4,0,0,1,.639,2.024,7.935,7.935,0,0,1-.508,2.558,7.788,7.788,0,0,1-1.278,2.324c-.018.044-.082.287-.123.452a3.444,3.444,0,0,1-1.2,2.088,9.377,9.377,0,0,1-2.53,1.391,7.046,7.046,0,0,1-2.176.262Z" transform="translate(26.255 49.971)" fill="#c5c3ff"/>
          </g>
        </g>
        <g id="Group_16" data-name="Group 16" transform="translate(44.617 83.477)">
          <g id="Group_15" data-name="Group 15" clip-path="url(#clip-path-9)">
            <rect id="Rectangle_9" data-name="Rectangle 9" width="13.959" height="14.678" transform="translate(-0.137 0)" fill="url(#linear-gradient-4)"/>
          </g>
        </g>
        <g id="Group_18" data-name="Group 18">
          <g id="Group_17" data-name="Group 17" clip-path="url(#clip-path)">
            <path id="Path_10" data-name="Path 10" d="M89.8,76.227A4.165,4.165,0,0,1,87.3,75.2a4.094,4.094,0,0,0-.464-.313,4.352,4.352,0,0,0-.644-.108,4.764,4.764,0,0,1-2.342-.775,10.2,10.2,0,0,1-2.291-2.2,4.529,4.529,0,0,1-.736-2.4,4.148,4.148,0,0,0-.09-.647,9.2,9.2,0,0,1-.523-2.948,5.811,5.811,0,0,0-.072-.706A5.212,5.212,0,0,1,80.22,62.7,7.085,7.085,0,0,1,81.529,60.5c.115-.149.233-.3.341-.444a5.331,5.331,0,0,1,1.845-1.5,5.288,5.288,0,0,0,.562-.341,5.011,5.011,0,0,0,.477-.431,5.079,5.079,0,0,1,2-1.344l.308-.1a8.523,8.523,0,0,1,2.737-.564,10.171,10.171,0,0,1,3.1.5c.185.062.377.115.575.169a7.212,7.212,0,0,1,2.4,1.021,4.024,4.024,0,0,1,1.388,2.289,3.94,3.94,0,0,0,.185.536,6.563,6.563,0,0,1,.967,2.181c.046.162.095.328.151.5a3.643,3.643,0,0,0,.262.523,4.6,4.6,0,0,1,.731,2.324,9.163,9.163,0,0,1-.58,2.935A9.07,9.07,0,0,1,97.51,71.42c-.021.049-.095.331-.144.518a3.958,3.958,0,0,1-1.373,2.4,10.823,10.823,0,0,1-2.907,1.6,8.092,8.092,0,0,1-2.5.3Z" transform="translate(125.299 87.316)" fill="#c5c3ff"/>
          </g>
        </g>
        <g id="Group_20" data-name="Group 20" transform="translate(207.16 144.915)">
          <g id="Group_19" data-name="Group 19" clip-path="url(#clip-path-11)">
            <rect id="Rectangle_11" data-name="Rectangle 11" width="16.027" height="16.853" transform="translate(-0.158)" fill="url(#linear-gradient-5)"/>
          </g>
        </g>
        <g id="Group_22" data-name="Group 22">
          <g id="Group_21" data-name="Group 21" clip-path="url(#clip-path)">
            <path id="Path_12" data-name="Path 12" d="M65.414,92.295c-7.638,0-14.806-6.714-14.806-14.352S57.776,62.5,65.414,62.5s12.579,7.8,12.579,15.44S73.054,92.295,65.414,92.295" transform="translate(79.232 97.854)" fill="#c5c3ff"/>
          </g>
        </g>
        <g id="Group_24" data-name="Group 24" transform="translate(134.55 163.611)">
          <g id="Group_23" data-name="Group 23" clip-path="url(#clip-path-13)">
            <rect id="Rectangle_13" data-name="Rectangle 13" width="21.615" height="22.99" transform="translate(0)" fill="url(#linear-gradient-6)"/>
          </g>
        </g>
        <g id="Group_26" data-name="Group 26">
          <g id="Group_25" data-name="Group 25" clip-path="url(#clip-path)">
            <path id="Path_14" data-name="Path 14" d="M85.178,94.654a9.075,9.075,0,0,1-9.38-9.085c0-5.229,4.151-10.48,9.38-10.48s8.667,5.252,8.667,10.48-3.438,9.085-8.667,9.085" transform="translate(118.669 117.559)" fill="#c5c3ff"/>
          </g>
        </g>
        <g id="Group_28" data-name="Group 28" transform="translate(197.661 195.663)">
          <g id="Group_27" data-name="Group 27" clip-path="url(#clip-path-15)">
            <rect id="Rectangle_15" data-name="Rectangle 15" width="13.241" height="14.083" transform="translate(0 0)" fill="url(#linear-gradient-7)"/>
          </g>
        </g>
        <g id="Group_30" data-name="Group 30">
          <g id="Group_29" data-name="Group 29" clip-path="url(#clip-path)">
            <path id="Path_16" data-name="Path 16" d="M93.091,25.291a2.269,2.269,0,0,1-2.345-2.271A2.578,2.578,0,0,1,93.091,20.4a2.437,2.437,0,0,1,2.168,2.619,2.125,2.125,0,0,1-2.168,2.271" transform="translate(142.072 31.94)" fill="#c5c3ff"/>
          </g>
        </g>
        <g id="Group_32" data-name="Group 32" transform="translate(233.616 53.095)">
          <g id="Group_31" data-name="Group 31" clip-path="url(#clip-path-17)">
            <rect id="Rectangle_17" data-name="Rectangle 17" width="3.312" height="3.52" transform="translate(0 0)" fill="url(#linear-gradient-8)"/>
          </g>
        </g>
        <g id="Group_34" data-name="Group 34">
          <g id="Group_33" data-name="Group 33" clip-path="url(#clip-path)">
            <path id="Path_18" data-name="Path 18" d="M108.765,88.262a4.538,4.538,0,0,1-4.69-4.544c0-2.612,2.076-5.239,4.69-5.239s4.333,2.627,4.333,5.239a4.248,4.248,0,0,1-4.333,4.544" transform="translate(162.939 122.866)" fill="#c5c3ff"/>
          </g>
        </g>
        <g id="Group_36" data-name="Group 36" transform="translate(268.61 202.851)">
          <g id="Group_35" data-name="Group 35" clip-path="url(#clip-path-19)">
            <rect id="Rectangle_19" data-name="Rectangle 19" width="6.622" height="7.043" transform="translate(0 0)" fill="url(#linear-gradient-9)"/>
          </g>
        </g>
        <g id="Group_38" data-name="Group 38">
          <g id="Group_37" data-name="Group 37" clip-path="url(#clip-path)">
            <path id="Path_20" data-name="Path 20" d="M116.546,62.933a4.538,4.538,0,0,1-4.69-4.544c0-2.612,2.076-5.239,4.69-5.239s4.333,2.627,4.333,5.239a4.248,4.248,0,0,1-4.333,4.544" transform="translate(175.121 83.211)" fill="#c5c3ff"/>
          </g>
        </g>
        <g id="Group_40" data-name="Group 40" transform="translate(288.573 137.867)">
          <g id="Group_39" data-name="Group 39" clip-path="url(#clip-path-21)">
            <rect id="Rectangle_21" data-name="Rectangle 21" width="6.622" height="7.043" transform="translate(0)" fill="url(#linear-gradient-10)"/>
          </g>
        </g>
        <g id="Group_42" data-name="Group 42">
          <g id="Group_41" data-name="Group 41" clip-path="url(#clip-path)">
            <path id="Path_22" data-name="Path 22" d="M34.849,98.253a4.538,4.538,0,0,1-4.692-4.544c0-2.612,2.076-5.239,4.692-5.239S39.18,91.1,39.18,93.709a4.247,4.247,0,0,1-4.331,4.544" transform="translate(47.214 138.508)" fill="#c5c3ff"/>
          </g>
        </g>
        <g id="Group_44" data-name="Group 44" transform="translate(78.969 228.484)">
          <g id="Group_43" data-name="Group 43" clip-path="url(#clip-path-23)">
            <rect id="Rectangle_23" data-name="Rectangle 23" width="6.619" height="7.043" transform="translate(0)" fill="url(#linear-gradient-11)"/>
          </g>
        </g>
        <g id="Group_46" data-name="Group 46">
          <g id="Group_45" data-name="Group 45" clip-path="url(#clip-path)">
            <path id="Path_24" data-name="Path 24" d="M75.326,53.827a4.538,4.538,0,0,1-4.69-4.544c0-2.612,2.076-5.239,4.69-5.239s4.333,2.627,4.333,5.239a4.248,4.248,0,0,1-4.333,4.544" transform="translate(110.587 68.955)" fill="#c5c3ff"/>
          </g>
        </g>
        <g id="Group_48" data-name="Group 48" transform="translate(182.819 114.505)">
          <g id="Group_47" data-name="Group 47" clip-path="url(#clip-path-25)">
            <rect id="Rectangle_25" data-name="Rectangle 25" width="6.624" height="7.043" transform="translate(0 0)" fill="url(#linear-gradient-12)"/>
          </g>
        </g>
        <g id="Group_50" data-name="Group 50">
          <g id="Group_49" data-name="Group 49" clip-path="url(#clip-path)">
            <path id="Path_26" data-name="Path 26" d="M21.6,73.734a4.538,4.538,0,0,1-4.69-4.544c0-2.612,2.076-5.239,4.69-5.239s4.333,2.627,4.333,5.239A4.248,4.248,0,0,1,21.6,73.734" transform="translate(26.473 100.121)" fill="#c5c3ff"/>
          </g>
        </g>
        <g id="Group_52" data-name="Group 52" transform="translate(44.977 165.578)">
          <g id="Group_51" data-name="Group 51" clip-path="url(#clip-path-27)">
            <rect id="Rectangle_27" data-name="Rectangle 27" width="6.619" height="7.04" transform="translate(0 0)" fill="url(#linear-gradient-13)"/>
          </g>
        </g>
        <g id="Group_63" data-name="Group 63">
          <g id="Group_62" data-name="Group 62" clip-path="url(#clip-path)">
            <g id="Group_55" data-name="Group 55" transform="translate(130.854 198.595)" opacity="0.36">
              <g id="Group_54" data-name="Group 54">
                <g id="Group_53" data-name="Group 53" clip-path="url(#clip-path-29)">
                  <path id="Path_28" data-name="Path 28" d="M128.579,114.488c0,20.479-17.367,37.081-38.787,37.081S51,134.966,51,114.488,68.369,77.407,89.792,77.407s38.787,16.6,38.787,37.081" transform="translate(-51.004 -77.406)" fill="#eaf0ff"/>
                </g>
              </g>
            </g>
            <g id="Group_58" data-name="Group 58" transform="translate(127.409 30.361)" opacity="0.36">
              <g id="Group_57" data-name="Group 57">
                <g id="Group_56" data-name="Group 56" clip-path="url(#clip-path-30)">
                  <path id="Path_29" data-name="Path 29" d="M159.065,59.331l-2.3,19.652L148.008,98.5l-21.174,4.556-18.667,10.183-22.038-1.493L72.389,94.149,55.828,80.643,49.661,59.331,62.04,40.774l10.4-16.207L88.176,12.2l19.991-.364,19.753.972,15.658,12.1,12.076,15.263Z" transform="translate(-49.66 -11.834)" fill="#eaf0ff"/>
                </g>
              </g>
            </g>
            <g id="Group_61" data-name="Group 61" transform="translate(20.138 121.446)" opacity="0.36">
              <g id="Group_60" data-name="Group 60">
                <g id="Group_59" data-name="Group 59" clip-path="url(#clip-path-31)">
                  <path id="Path_30" data-name="Path 30" d="M81.538,82.56c0,19.452-16.5,35.223-36.845,35.223S7.849,102.012,7.849,82.56s16.5-35.223,36.845-35.223S81.538,63.108,81.538,82.56" transform="translate(-7.85 -47.336)" fill="#eaf0ff"/>
                </g>
              </g>
            </g>
            <path id="Path_31" data-name="Path 31" d="M106.728,67.756a8,8,0,1,1-8-8,8,8,0,0,1,8,8" transform="translate(142.057 93.558)" fill="#fffaf4"/>
          </g>
        </g>
        <rect id="Rectangle_33" data-name="Rectangle 33" width="306.968" height="305.306" fill="none"/>
      </g>
    </g>
  </g>
</svg>
