<svg xmlns="http://www.w3.org/2000/svg" width="25.917" height="44.429" viewBox="0 0 25.917 44.429">
  <path id="lightBulb" d="M30.917,12.466c0,7.708-6.942,12.921-6.942,19H20.287c0-3.849,1.844-7.083,3.643-10.206,1.69-2.934,3.284-5.707,3.284-8.8,0-5.754-4.661-8.764-9.263-8.764S8.7,6.712,8.7,12.466c0,3.091,1.594,5.865,3.284,8.8,1.8,3.123,3.639,6.357,3.641,10.206H11.942c0-6.083-6.942-11.3-6.942-19C5,4.426,11.475,0,17.951,0S30.917,4.432,30.917,12.466Zm-7.4,21.781a.926.926,0,0,1-.926.926H13.33a.926.926,0,1,1,0-1.851h9.256A.926.926,0,0,1,23.512,34.247Zm0,3.7a.926.926,0,0,1-.926.926H13.33a.926.926,0,1,1,0-1.851h9.256A.926.926,0,0,1,23.512,37.949ZM20.363,43.8a1.859,1.859,0,0,1-1.392.631H16.946a1.859,1.859,0,0,1-1.392-.631l-2.686-3.071H23.049ZM13.645,13.536l-2.2-.283a7.841,7.841,0,0,1,6.512-7.122l.405,2.179A5.679,5.679,0,0,0,13.645,13.536Z" transform="translate(-5)" fill="#4d514d"/>
</svg>
